<?xml version="1.0" encoding="iso-8859-1"?>
<!-- Generator: Adobe Illustrator 19.0.0, SVG Export Plug-In . SVG Version: 6.00 Build 0)  -->
<svg xmlns="http://www.w3.org/2000/svg" xmlns:xlink="http://www.w3.org/1999/xlink" version="1.1" id="Capa_1" x="0px" y="0px" viewBox="0 0 512 512" style="enable-background:new 0 0 512 512;" xml:space="preserve" width="20px" height="20px">
<g>
	<g>
		<path d="M497,0h-62c-8.284,0-15,6.716-15,15v55.787L68.787,422H15c-8.284,0-15,6.716-15,15v60c0,8.284,6.716,15,15,15h60    c8.284,0,15-6.716,15-15v-53.787L441.213,92H497c8.284,0,15-6.716,15-15V15C512,6.716,505.284,0,497,0z M60,482H30v-30h30V482z     M482,62h-32V30h32V62z" fill="#006DF0"/>
	</g>
</g>
<g>
</g>
<g>
</g>
<g>
</g>
<g>
</g>
<g>
</g>
<g>
</g>
<g>
</g>
<g>
</g>
<g>
</g>
<g>
</g>
<g>
</g>
<g>
</g>
<g>
</g>
<g>
</g>
<g>
</g>
</svg>
